<svg width="38" height="31" viewBox="0 0 38 31" fill="none" xmlns="http://www.w3.org/2000/svg">
<path fill-rule="evenodd" clip-rule="evenodd" d="M19 0C20.6245 0 22.2908 0.0426252 23.9058 0.112375L25.8134 0.205375L27.6393 0.315813L29.3493 0.434L30.9111 0.558C32.6063 0.689539 34.2015 1.42684 35.4159 2.64004C36.6303 3.85324 37.3859 5.46452 37.5497 7.19006L37.6257 8.0135L37.7682 9.77662C37.9012 11.6037 38 13.5954 38 15.5C38 17.4046 37.9012 19.3963 37.7682 21.2234L37.6257 22.9865L37.5497 23.8099C37.3859 25.5358 36.63 27.1473 35.4152 28.3605C34.2004 29.5738 32.6047 30.3109 30.9092 30.442L29.3512 30.5641L27.6412 30.6842L25.8134 30.7946L23.9058 30.8876C22.2715 30.9598 20.6359 30.9973 19 31C17.3641 30.9973 15.7285 30.9598 14.0942 30.8876L12.1866 30.7946L10.3607 30.6842L8.6507 30.5641L7.0889 30.442C5.39375 30.3105 3.79848 29.5732 2.58408 28.36C1.36969 27.1468 0.614062 25.5355 0.4503 23.8099L0.3743 22.9865L0.2318 21.2234C0.0870822 19.319 0.00976532 17.41 0 15.5C0 13.5954 0.0988 11.6037 0.2318 9.77662L0.3743 8.0135L0.4503 7.19006C0.613999 5.46482 1.36935 3.85379 2.58336 2.64063C3.79737 1.42747 5.39218 0.689975 7.087 0.558L8.6469 0.434L10.3569 0.315813L12.1847 0.205375L14.0923 0.112375C15.7273 0.0401589 17.3635 0.00269231 19 0ZM15.2 10.8016V20.1984C15.2 21.0936 16.15 21.6516 16.91 21.2059L24.89 16.5075C25.0636 16.4056 25.2079 16.2588 25.3082 16.0819C25.4085 15.905 25.4613 15.7043 25.4613 15.5C25.4613 15.2957 25.4085 15.095 25.3082 14.9181C25.2079 14.7412 25.0636 14.5944 24.89 14.4925L16.91 9.796C16.7366 9.69394 16.54 9.64022 16.3398 9.64025C16.1396 9.64029 15.943 9.69407 15.7697 9.79619C15.5964 9.8983 15.4525 10.0452 15.3525 10.222C15.2525 10.3988 15.1999 10.5994 15.2 10.8035V10.8016Z" fill="#7B8B9F"/>
</svg>
