<svg width="46" height="46" viewBox="0 0 46 46" fill="none" xmlns="http://www.w3.org/2000/svg">
<path d="M44.9167 44.917H0.75" stroke="black" stroke-width="1.5" stroke-linecap="round"/>
<path d="M33.8744 44.9167V9.58333C33.8744 5.41842 33.8743 3.33817 32.5803 2.04408C31.2862 0.75 29.2059 0.75 25.041 0.75H20.6243C16.4594 0.75 14.3792 0.75 13.0851 2.04408C11.791 3.33817 11.791 5.41842 11.791 9.58333V44.9167" stroke="black" stroke-width="1.5"/>
<path d="M22.8327 44.9167V38.2917M18.416 22.8333H27.2494M8.47852 20.625H11.791M8.47852 27.25H11.791M33.8744 20.625H37.1869M33.8744 27.25H37.1869M8.47852 14H11.791M33.8744 14H37.1869" stroke="black" stroke-width="1.5" stroke-linecap="round"/>
<path d="M22.8327 16.2083C25.2719 16.2083 27.2493 14.2309 27.2493 11.7917C27.2493 9.35241 25.2719 7.375 22.8327 7.375C20.3934 7.375 18.416 9.35241 18.416 11.7917C18.416 14.2309 20.3934 16.2083 22.8327 16.2083Z" stroke="black" stroke-width="1.5"/>
<path d="M41.0527 21.7292C41.0527 22.1684 41.2272 22.5897 41.5378 22.9003C41.8484 23.2109 42.2697 23.3854 42.709 23.3854C43.1483 23.3854 43.5695 23.2109 43.8801 22.9003C44.1907 22.5897 44.3652 22.1684 44.3652 21.7292H41.0527ZM44.3652 30.5625C44.3652 30.1232 44.1907 29.702 43.8801 29.3914C43.5695 29.0808 43.1483 28.9063 42.709 28.9063C42.2697 28.9063 41.8484 29.0808 41.5378 29.3914C41.2272 29.702 41.0527 30.1232 41.0527 30.5625H44.3652ZM34.9798 15.6563C36.5654 15.6563 37.6298 15.6563 38.4403 15.7402C39.2242 15.8197 39.5864 15.961 39.8271 16.1222L41.6667 13.3662C40.7922 12.7832 39.8227 12.5513 38.7759 12.4453C37.7579 12.3415 36.4969 12.3438 34.9798 12.3438V15.6563ZM44.3652 21.7292C44.3652 20.212 44.3652 18.9511 44.2637 17.933C44.1577 16.8885 43.9258 15.9168 43.3406 15.0423L40.5868 16.8841C40.748 17.1226 40.8893 17.4848 40.9688 18.2687C41.0505 19.0792 41.0527 20.1458 41.0527 21.7292H44.3652ZM39.8271 16.12C40.1304 16.3261 40.3836 16.5808 40.5868 16.8841L43.3406 15.0423C42.8989 14.3798 42.3292 13.8101 41.6667 13.3662L39.8271 16.12ZM41.0527 30.5625V44.9167H44.3652V30.5625H41.0527ZM4.61524 40.5C4.61524 40.0607 4.44074 39.6395 4.13013 39.3289C3.81953 39.0183 3.39825 38.8438 2.95899 38.8438C2.51972 38.8438 2.09845 39.0183 1.78784 39.3289C1.47724 39.6395 1.30274 40.0607 1.30274 40.5H4.61524ZM1.30274 31.6667C1.30274 32.1059 1.47724 32.5272 1.78784 32.8378C2.09845 33.1484 2.51972 33.3229 2.95899 33.3229C3.39825 33.3229 3.81953 33.1484 4.13013 32.8378C4.44074 32.5272 4.61524 32.1059 4.61524 31.6667H1.30274ZM10.6882 12.3438C9.17103 12.3438 7.91007 12.3438 6.89203 12.4453C5.84749 12.5513 4.87582 12.7832 4.00132 13.3662L5.84307 16.1222C6.08157 15.961 6.44374 15.8197 7.2277 15.7402C8.03815 15.6585 9.10478 15.6563 10.6882 15.6563V12.3438ZM4.61524 21.7292C4.61524 20.1436 4.61524 19.0792 4.69915 18.2687C4.77865 17.4848 4.91999 17.1226 5.0812 16.8841L2.3252 15.0423C1.7422 15.9168 1.51032 16.8885 1.40432 17.933C1.30053 18.9511 1.30274 20.212 1.30274 21.7292H4.61524ZM4.00132 13.3662C3.33954 13.8122 2.77036 14.38 2.3252 15.0423L5.0812 16.8841C5.28479 16.5843 5.54331 16.3258 5.84307 16.1222L4.00132 13.3662ZM1.30274 40.5V44.9167H4.61524V40.5H1.30274ZM1.30274 21.7292V31.6667H4.61524V21.7292H1.30274Z" fill="black"/>
<path d="M18.416 29.458H19.5202M27.2493 29.458H23.9368" stroke="black" stroke-width="1.5" stroke-linecap="round"/>
</svg>
