<svg width="43" height="52" viewBox="0 0 43 52" fill="none" xmlns="http://www.w3.org/2000/svg">
<path d="M21.5001 20.8C27.4394 20.8 32.25 16.146 32.25 10.4C32.25 4.654 27.4394 0 21.5001 0C15.5607 0 10.7501 4.654 10.7501 10.4C10.7501 16.146 15.5607 20.8 21.5001 20.8ZM21.5001 5.2C24.4563 5.2 26.8751 7.54 26.8751 10.4C26.8751 13.26 24.4563 15.6 21.5001 15.6C18.5438 15.6 16.1251 13.26 16.1251 10.4C16.1251 7.54 18.5438 5.2 21.5001 5.2ZM38.6731 27.456C34.1582 25.22 28.2994 23.4 21.5001 23.4C14.7007 23.4 8.84201 25.22 4.32703 27.456C3.01569 28.1094 1.91716 29.1016 1.15338 30.3225C0.389587 31.5433 -0.00958186 32.945 0.000174661 34.372V52H5.37515V34.372C5.37515 33.384 5.91265 32.5 6.7189 32.084C9.97076 30.498 15.1307 28.6 21.5001 28.6C23.5426 28.6 25.4507 28.782 27.2244 29.12L23.0588 37.7H15.4532C11.3683 37.7 8.06264 40.898 8.06264 44.85C8.06264 48.802 11.3683 52 15.4532 52H37.625C40.5813 52 43 49.66 43 46.8V34.372C43 31.46 41.3606 28.782 38.6731 27.456ZM18.6513 46.8H15.4532C14.3514 46.8 13.4376 45.916 13.4376 44.85C13.4376 43.784 14.3514 42.9 15.4532 42.9H20.5326L18.6513 46.8ZM37.625 46.8H24.5907L32.4919 30.498C33.9432 31.018 35.2063 31.564 36.2813 32.084C37.0875 32.5 37.625 33.384 37.625 34.372V46.8Z" fill="black"/>
</svg>
