<svg width="58" height="58" viewBox="0 0 58 58" fill="none" xmlns="http://www.w3.org/2000/svg">
<path d="M38.666 26.583C42.6777 26.583 45.8918 23.3447 45.8918 19.333C45.8918 15.3213 42.6777 12.083 38.666 12.083C34.6544 12.083 31.416 15.3213 31.416 19.333C31.416 23.3447 34.6544 26.583 38.666 26.583ZM19.3327 26.583C23.3443 26.583 26.5585 23.3447 26.5585 19.333C26.5585 15.3213 23.3443 12.083 19.3327 12.083C15.321 12.083 12.0827 15.3213 12.0827 19.333C12.0827 23.3447 15.321 26.583 19.3327 26.583ZM19.3327 31.4163C13.7018 31.4163 2.41602 34.2438 2.41602 39.8747V43.4997C2.41602 44.8288 3.50352 45.9163 4.83268 45.9163H33.8327C35.1618 45.9163 36.2494 44.8288 36.2494 43.4997V39.8747C36.2494 34.2438 24.9635 31.4163 19.3327 31.4163ZM38.666 31.4163C37.9652 31.4163 37.1677 31.4647 36.3218 31.5372C36.3702 31.5613 36.3943 31.6097 36.4185 31.6338C39.1735 33.6397 41.0827 36.3222 41.0827 39.8747V43.4997C41.0827 44.3455 40.9135 45.1672 40.6477 45.9163H53.166C54.4952 45.9163 55.5827 44.8288 55.5827 43.4997V39.8747C55.5827 34.2438 44.2968 31.4163 38.666 31.4163Z" fill="black"/>
</svg>
