<svg width="33" height="31" viewBox="0 0 33 31" fill="none" xmlns="http://www.w3.org/2000/svg">
<path opacity="0.5" d="M9.57 0H23.43C28.71 0 33 4.03 33 8.99V22.01C33 24.3943 31.9917 26.6809 30.197 28.3669C28.4023 30.0528 25.9681 31 23.43 31H9.57C4.29 31 0 26.97 0 22.01V8.99C0 6.6057 1.00827 4.31906 2.80299 2.63311C4.59771 0.947158 7.03188 0 9.57 0ZM9.24 3.1C7.66461 3.1 6.15375 3.68789 5.03979 4.73434C3.92582 5.7808 3.3 7.20009 3.3 8.68V22.32C3.3 25.4045 5.9565 27.9 9.24 27.9H23.76C25.3354 27.9 26.8462 27.3121 27.9602 26.2657C29.0742 25.2192 29.7 23.7999 29.7 22.32V8.68C29.7 5.5955 27.0435 3.1 23.76 3.1H9.24ZM25.1625 5.425C25.7095 5.425 26.2341 5.62913 26.6209 5.99248C27.0077 6.35583 27.225 6.84864 27.225 7.3625C27.225 7.87636 27.0077 8.36917 26.6209 8.73252C26.2341 9.09587 25.7095 9.3 25.1625 9.3C24.6155 9.3 24.0909 9.09587 23.7041 8.73252C23.3173 8.36917 23.1 7.87636 23.1 7.3625C23.1 6.84864 23.3173 6.35583 23.7041 5.99248C24.0909 5.62913 24.6155 5.425 25.1625 5.425ZM16.5 7.75C18.688 7.75 20.7865 8.56651 22.3336 10.0199C23.8808 11.4733 24.75 13.4446 24.75 15.5C24.75 17.5554 23.8808 19.5267 22.3336 20.9801C20.7865 22.4335 18.688 23.25 16.5 23.25C14.312 23.25 12.2135 22.4335 10.6664 20.9801C9.11919 19.5267 8.25 17.5554 8.25 15.5C8.25 13.4446 9.11919 11.4733 10.6664 10.0199C12.2135 8.56651 14.312 7.75 16.5 7.75ZM16.5 10.85C15.1872 10.85 13.9281 11.3399 12.9998 12.212C12.0715 13.084 11.55 14.2667 11.55 15.5C11.55 16.7333 12.0715 17.916 12.9998 18.788C13.9281 19.6601 15.1872 20.15 16.5 20.15C17.8128 20.15 19.0719 19.6601 20.0002 18.788C20.9285 17.916 21.45 16.7333 21.45 15.5C21.45 14.2667 20.9285 13.084 20.0002 12.212C19.0719 11.3399 17.8128 10.85 16.5 10.85Z" fill="#012148"/>
</svg>
