<svg width="50" height="50" viewBox="0 0 50 50" fill="none" xmlns="http://www.w3.org/2000/svg">
<path d="M4.29203 30.5837C4.43559 31.1098 4.77965 31.5585 5.25037 31.8337L9.22953 34.1462V38.7296C9.22953 39.2821 9.44903 39.812 9.83973 40.2027C10.2304 40.5934 10.7603 40.8129 11.3129 40.8129H15.8962L18.2087 44.7921C18.3905 45.1069 18.6515 45.3688 18.9658 45.5515C19.2801 45.7342 19.6368 45.8315 20.0004 45.8337C20.3743 45.8336 20.7413 45.7329 21.0629 45.5421L25.0212 43.2504L29.0004 45.5421C29.2369 45.6807 29.4985 45.7712 29.7701 45.8086C30.0417 45.8459 30.318 45.8292 30.5831 45.7595C30.8483 45.6899 31.0971 45.5685 31.3153 45.4025C31.5334 45.2365 31.7167 45.0291 31.8545 44.7921L34.1462 40.8129H38.7295C39.2821 40.8129 39.812 40.5934 40.2027 40.2027C40.5934 39.812 40.8129 39.2821 40.8129 38.7296V34.1462L44.792 31.8337C45.2686 31.5589 45.617 31.1068 45.7615 30.576C45.9059 30.0452 45.8345 29.4788 45.5629 29.0004L43.2504 25.0004L45.5629 21.0212C45.8345 20.5429 45.9059 19.9765 45.7615 19.4457C45.617 18.9149 45.2686 18.4627 44.792 18.1879L40.8129 15.8962V11.3129C40.8129 10.7604 40.5934 10.2305 40.2027 9.83977C39.812 9.44907 39.2821 9.22958 38.7295 9.22958H34.1462L31.8545 5.25041C31.5745 4.77536 31.1175 4.43073 30.5837 4.29208C30.3191 4.22096 30.043 4.20276 29.7713 4.23851C29.4996 4.27426 29.2376 4.36326 29.0004 4.50041L25.0004 6.79208L21.042 4.50041C20.5662 4.22705 20.0017 4.15249 19.4712 4.29292C18.9407 4.43335 18.487 4.77742 18.2087 5.25041L15.8962 9.22958H11.3129C10.7603 9.22958 10.2304 9.44907 9.83973 9.83977C9.44903 10.2305 9.22953 10.7604 9.22953 11.3129V15.8962L5.2712 18.1879C5.03248 18.324 4.82304 18.506 4.65495 18.7234C4.48685 18.9408 4.36343 19.1893 4.29178 19.4546C4.22013 19.7199 4.20168 19.9967 4.23747 20.2692C4.27327 20.5416 4.36262 20.8043 4.50037 21.0421L6.79203 25.0004L4.50037 28.9796C4.36044 29.2196 4.26992 29.4851 4.23415 29.7606C4.19837 30.0361 4.21805 30.316 4.29203 30.5837ZM11.0004 23.9796L9.1462 20.8337L12.3754 18.9587C12.6864 18.7744 12.944 18.5122 13.123 18.1981C13.302 17.8839 13.3961 17.5286 13.3962 17.1671V13.3962H17.1045C17.4716 13.3977 17.8326 13.3021 18.1509 13.1192C18.4692 12.9363 18.7335 12.6725 18.917 12.3546L20.8337 9.14624L24.042 11.0004C24.3587 11.1833 24.718 11.2795 25.0837 11.2795C25.4494 11.2795 25.8087 11.1833 26.1254 11.0004L29.3545 9.14624L31.2504 12.3546C31.4339 12.6725 31.6982 12.9363 32.0165 13.1192C32.3348 13.3021 32.6958 13.3977 33.0629 13.3962H36.7504V17.1046C36.7526 17.4681 36.8499 17.8248 37.0326 18.1391C37.2153 18.4534 37.4772 18.7145 37.792 18.8962L41.0004 20.7712L39.1462 23.9796C38.9634 24.2963 38.8671 24.6555 38.8671 25.0212C38.8671 25.3869 38.9634 25.7462 39.1462 26.0629L41.0004 29.2712L37.792 31.1462C37.4772 31.328 37.2153 31.589 37.0326 31.9034C36.8499 32.2177 36.7526 32.5743 36.7504 32.9379V36.6462H32.9379C32.5743 36.6484 32.2176 36.7457 31.9033 36.9285C31.589 37.1112 31.328 37.373 31.1462 37.6879L29.292 40.8962L26.0629 39.0421C25.7462 38.8592 25.3869 38.763 25.0212 38.763C24.6555 38.763 24.2962 38.8592 23.9795 39.0421L20.8337 40.8962L18.9795 37.6879C18.796 37.37 18.5317 37.1062 18.2134 36.9233C17.8951 36.7404 17.5341 36.6448 17.167 36.6462H13.3962V32.9379C13.3787 32.5942 13.2763 32.2602 13.0981 31.9657C12.92 31.6712 12.6717 31.4255 12.3754 31.2504L9.1462 29.3754L11.0004 26.1671C11.2032 25.8383 11.3106 25.4596 11.3106 25.0733C11.3106 24.687 11.2032 24.3083 11.0004 23.9796Z" fill="black"/>
</svg>
