<svg width="52" height="52" viewBox="0 0 52 52" fill="none" xmlns="http://www.w3.org/2000/svg">
<path d="M27.6251 5.95801V9.74967H31.9043C32.6648 9.74967 33.408 9.97934 34.0363 10.4062L37.7131 12.9065C37.8041 12.9672 37.9053 12.9982 38.0165 12.9997H46.9041C47.3351 12.9997 47.7484 13.1709 48.0532 13.4756C48.3579 13.7804 48.5291 14.1937 48.5291 14.6247C48.5291 15.0557 48.3579 15.469 48.0532 15.7737C47.7484 16.0785 47.3351 16.2497 46.9041 16.2497H43.4851L50.7781 32.8897C50.9241 33.2224 50.9543 33.5944 50.8639 33.9463C50.7736 34.2982 50.5679 34.6097 50.2798 34.831C50.0631 34.9913 49.8393 35.1401 49.6081 35.2773C49.0597 35.6073 48.4875 35.8962 47.8965 36.1418C45.9367 36.9614 43.8327 37.3806 41.7085 37.3747C39.5848 37.3839 37.4811 36.9654 35.5226 36.144C34.9315 35.8977 34.3594 35.608 33.811 35.2773C33.5805 35.1452 33.3584 34.999 33.1458 34.8397L33.135 34.831C32.8469 34.6097 32.6412 34.2982 32.5509 33.9463C32.4605 33.5944 32.4907 33.2224 32.6366 32.8897L39.934 16.2497H38.0143C37.2538 16.2497 36.5106 16.02 35.8823 15.5932L32.2055 13.0928C32.1159 13.0322 32.0103 12.9998 31.9021 12.9997H27.6251V44.4163H37.347C37.778 44.4163 38.1913 44.5875 38.496 44.8923C38.8008 45.197 38.972 45.6104 38.972 46.0413C38.972 46.4723 38.8008 46.8856 38.496 47.1904C38.1913 47.4951 37.778 47.6663 37.347 47.6663H14.6533C14.2223 47.6663 13.809 47.4951 13.5043 47.1904C13.1995 46.8856 13.0283 46.4723 13.0283 46.0413C13.0283 45.6104 13.1995 45.197 13.5043 44.8923C13.809 44.5875 14.2223 44.4163 14.6533 44.4163H24.3751V12.9997H20.096C19.9878 12.9998 19.8822 13.0322 19.7926 13.0928L16.118 15.5932C15.4896 16.02 14.7465 16.2497 13.986 16.2497H12.0663L19.3636 32.8897C19.5049 33.2129 19.5371 33.5734 19.4554 33.9166C19.3737 34.2598 19.1826 34.567 18.9108 34.792C18.7375 34.9328 18.5641 35.065 18.2391 35.2752C17.6915 35.6305 17.1179 35.9442 16.5231 36.2133C14.5668 37.1039 12.4413 37.5621 10.2918 37.5567C8.14228 37.5621 6.01686 37.1039 4.06048 36.2133C3.46573 35.9442 2.89211 35.6305 2.34448 35.2752C2.11385 35.1263 1.89044 34.9665 1.67498 34.7963C1.40483 34.5692 1.21479 34.2614 1.13287 33.9181C1.05095 33.5748 1.08148 33.2143 1.21998 32.8897L8.51515 16.2497H5.09831C4.66734 16.2497 4.25401 16.0785 3.94926 15.7737C3.64452 15.469 3.47331 15.0557 3.47331 14.6247C3.47331 14.1937 3.64452 13.7804 3.94926 13.4756C4.25401 13.1709 4.66734 12.9997 5.09831 12.9997H13.986C14.0958 12.9997 14.1976 12.9686 14.2915 12.9065L17.964 10.4062C18.5923 9.97717 19.3376 9.74967 20.0981 9.74967H24.3751V5.95801C24.3751 5.52703 24.5464 5.11371 24.8511 4.80896C25.1558 4.50421 25.5692 4.33301 26.0001 4.33301C26.4311 4.33301 26.8444 4.50421 27.1492 4.80896C27.4539 5.11371 27.6251 5.52703 27.6251 5.95801ZM4.75165 32.9287C6.45645 33.8377 8.35982 34.3104 10.2918 34.3045C12.2238 34.3104 14.1272 33.8377 15.832 32.9287L10.2918 20.297L4.75165 32.9287ZM36.19 32.8767C36.3676 32.9633 36.5663 33.0543 36.7858 33.1497C37.9341 33.6328 39.6133 34.1247 41.7085 34.1247C43.6185 34.1298 45.505 33.7032 47.227 32.8767L41.7085 20.2948L36.19 32.8767Z" fill="black"/>
</svg>
