<svg width="51" height="51" viewBox="0 0 51 51" fill="none" xmlns="http://www.w3.org/2000/svg">
<path d="M15.9375 4.25C17.0647 4.25 18.1457 4.69777 18.9427 5.4948C19.7397 6.29183 20.1875 7.37283 20.1875 8.5C20.1875 9.62717 19.7397 10.7082 18.9427 11.5052C18.1457 12.3022 17.0647 12.75 15.9375 12.75C14.8103 12.75 13.7293 12.3022 12.9323 11.5052C12.1353 10.7082 11.6875 9.62717 11.6875 8.5C11.6875 7.37283 12.1353 6.29183 12.9323 5.4948C13.7293 4.69777 14.8103 4.25 15.9375 4.25ZM12.75 14.875H19.125C20.2522 14.875 21.3332 15.3228 22.1302 16.1198C22.9272 16.9168 23.375 17.9978 23.375 19.125V30.8125H20.1875V46.75H11.6875V30.8125H8.5V19.125C8.5 17.9978 8.94777 16.9168 9.7448 16.1198C10.5418 15.3228 11.6228 14.875 12.75 14.875ZM30.8125 25.5C30.8125 24.3728 31.2603 23.2918 32.0573 22.4948C32.8543 21.6978 33.9353 21.25 35.0625 21.25C36.1897 21.25 37.2707 21.6978 38.0677 22.4948C38.8647 23.2918 39.3125 24.3728 39.3125 25.5C39.3125 26.6272 38.8647 27.7082 38.0677 28.5052C37.2707 29.3022 36.1897 29.75 35.0625 29.75C33.9353 29.75 32.8543 29.3022 32.0573 28.5052C31.2603 27.7082 30.8125 26.6272 30.8125 25.5ZM28.6875 31.875H41.4375V40.375H38.25V46.75H31.875V40.375H28.6875V31.875Z" fill="black"/>
</svg>
