<svg width="52" height="52" viewBox="0 0 52 52" fill="none" xmlns="http://www.w3.org/2000/svg">
<path d="M25.7827 47.6663L35.641 21.6663H40.191L50.0494 47.6663H45.4994L43.1702 41.058H32.6618L30.3327 47.6663H25.7827ZM8.66602 41.1663L5.63268 38.133L16.5743 27.1913C15.3105 25.9275 14.1636 24.483 13.1337 22.858C12.1038 21.233 11.1562 19.3913 10.291 17.333H14.841C15.5632 18.7413 16.2855 19.9691 17.0077 21.0163C17.7299 22.0636 18.5966 23.1108 19.6077 24.158C20.7994 22.9663 22.0365 21.2958 23.3192 19.1465C24.6018 16.9972 25.5675 14.9482 26.216 12.9997H2.16602V8.66634H17.3327V4.33301H21.666V8.66634H36.8327V12.9997H30.5494C29.791 15.5997 28.6535 18.2719 27.1368 21.0163C25.6202 23.7608 24.1216 25.8552 22.641 27.2997L27.841 32.608L26.216 37.0497L19.6077 30.2788L8.66602 41.1663ZM34.016 37.2663H41.816L37.916 26.2163L34.016 37.2663Z" fill="black"/>
</svg>
