<svg width="52" height="52" viewBox="0 0 52 52" fill="none" xmlns="http://www.w3.org/2000/svg">
<path d="M43.7673 25.6212L13.434 33.8004C12.4951 34.0531 11.5829 33.999 10.6975 33.6379C9.81203 33.2767 9.11725 32.6809 8.61314 31.8504L3.68397 23.617C3.28675 23.0031 3.22392 22.3531 3.49547 21.667C3.76703 20.9809 4.2632 20.5476 4.98397 20.367L6.22981 20.042C6.59092 19.9698 6.94336 19.9611 7.28714 20.016C7.63092 20.0709 7.94653 20.224 8.23397 20.4754L13.434 24.8087L21.0173 22.8045L12.1881 10.9962C11.6104 10.2379 11.4659 9.4167 11.7548 8.5327C12.0437 7.6487 12.6576 7.07959 13.5965 6.82536L14.734 6.55453C15.1312 6.4462 15.5559 6.42814 16.008 6.50036C16.4601 6.57259 16.8479 6.75314 17.1715 7.04203L32.284 19.7712L41.4923 17.2795C42.6479 16.9545 43.7406 17.0903 44.7705 17.6869C45.8004 18.2834 46.4771 19.1588 46.8006 20.3129C47.1242 21.467 46.9891 22.5597 46.3955 23.591C45.8018 24.6224 44.9258 25.2991 43.7673 25.6212ZM8.66731 45.5004C8.05342 45.5004 7.5392 45.2924 7.12464 44.8764C6.71009 44.4604 6.50209 43.9461 6.50064 43.3337C6.4992 42.7213 6.7072 42.207 7.12464 41.791C7.54209 41.375 8.05631 41.167 8.66731 41.167H43.334C43.9479 41.167 44.4628 41.375 44.8788 41.791C45.2948 42.207 45.5021 42.7213 45.5006 43.3337C45.4992 43.9461 45.2912 44.4611 44.8766 44.8785C44.4621 45.296 43.9479 45.5033 43.334 45.5004H8.66731Z" fill="black"/>
</svg>
