<svg width="64" height="64" viewBox="0 0 64 64" fill="none" xmlns="http://www.w3.org/2000/svg">
<path d="M50.6667 55.3332C51.3739 55.3332 52.0522 55.0522 52.5523 54.5521C53.0524 54.052 53.3334 53.3737 53.3334 52.6665V49.3438C53.344 41.8612 42.736 35.9998 32 35.9998C21.264 35.9998 10.6667 41.8612 10.6667 49.3438V52.6665C10.6667 53.3737 10.9476 54.052 11.4477 54.5521C11.9478 55.0522 12.6261 55.3332 13.3334 55.3332H50.6667ZM41.6107 18.2772C41.6107 19.5393 41.3621 20.789 40.8791 21.955C40.3961 23.121 39.6882 24.1805 38.7958 25.0729C37.9034 25.9654 36.8439 26.6733 35.6779 27.1563C34.5118 27.6392 33.2621 27.8878 32 27.8878C30.7379 27.8878 29.4882 27.6392 28.3222 27.1563C27.1562 26.6733 26.0967 25.9654 25.2043 25.0729C24.3118 24.1805 23.6039 23.121 23.1209 21.955C22.6379 20.789 22.3894 19.5393 22.3894 18.2772C22.3894 15.7283 23.4019 13.2838 25.2043 11.4814C27.0066 9.67905 29.4511 8.6665 32 8.6665C34.5489 8.6665 36.9934 9.67905 38.7958 11.4814C40.5981 13.2838 41.6107 15.7283 41.6107 18.2772Z" stroke="#333333" stroke-width="3" stroke-linecap="round" stroke-linejoin="round"/>
</svg>
