<svg width="53" height="53" viewBox="0 0 53 53" fill="none" xmlns="http://www.w3.org/2000/svg">
<path d="M7.72852 40.8542C6.84999 40.8542 6.00744 40.5052 5.38622 39.884C4.76501 39.2627 4.41602 38.4202 4.41602 37.5417V27.284C4.41595 26.0531 4.7588 24.8465 5.40611 23.7996C6.05341 22.7527 6.97958 21.9068 8.08074 21.3568L8.83379 20.9814L11.3844 10.0391C11.6107 9.06832 12.1587 8.20264 12.9393 7.5828C13.7199 6.96295 14.6873 6.62539 15.684 6.625H37.4229C38.427 6.62495 39.4011 6.96705 40.1847 7.5949C40.9684 8.22275 41.5146 9.09887 41.7335 10.0788L44.1682 20.9814L44.9191 21.3568C46.0197 21.9068 46.9454 22.7524 47.5925 23.7989C48.2396 24.8454 48.5824 26.0514 48.5827 27.2818V37.5417C48.5827 38.4202 48.2337 39.2627 47.6125 39.884C46.9913 40.5052 46.1487 40.8542 45.2702 40.8542H43.0652V41.9583C43.0652 43.1301 42.5997 44.254 41.7711 45.0826C40.9425 45.9112 39.8186 46.3767 38.6468 46.3767C37.475 46.3767 36.3512 45.9112 35.5226 45.0826C34.694 44.254 34.2285 43.1301 34.2285 41.9583V40.8542H18.7702V41.9583C18.7702 43.1297 18.3049 44.2531 17.4766 45.0814C16.6483 45.9097 15.5249 46.375 14.3535 46.375C13.1821 46.375 12.0587 45.9097 11.2305 45.0814C10.4022 44.2531 9.93685 43.1297 9.93685 41.9583V40.8542H7.72852Z" stroke="black" stroke-width="2" stroke-linejoin="round"/>
<path d="M15.457 24.292H37.5404L35.7163 16.0836C35.6073 15.5932 35.3343 15.1547 34.9425 14.8403C34.5506 14.5259 34.0633 14.3546 33.5609 14.3545H19.4364C18.9341 14.3546 18.4468 14.5259 18.0549 14.8403C17.6631 15.1547 17.3901 15.5932 17.2811 16.0836L15.457 24.292Z" stroke="black" stroke-width="2" stroke-linejoin="round"/>
<path d="M14.9053 30.3125C15.5046 30.3126 16.0791 30.5509 16.5029 30.9746C16.9268 31.3985 17.165 31.9737 17.165 32.5732C17.165 33.1726 16.9268 33.7471 16.5029 34.1709C16.0791 34.5947 15.5047 34.8329 14.9053 34.833C14.3058 34.833 13.7306 34.5948 13.3066 34.1709C12.8829 33.7471 12.6446 33.1725 12.6445 32.5732C12.6445 31.9737 12.8827 31.3985 13.3066 30.9746C13.7306 30.5507 14.3058 30.3125 14.9053 30.3125ZM38.0928 30.3125C38.6921 30.3126 39.2666 30.5509 39.6904 30.9746C40.1143 31.3985 40.3525 31.9737 40.3525 32.5732C40.3525 33.1726 40.1143 33.7471 39.6904 34.1709C39.2666 34.5947 38.6922 34.8329 38.0928 34.833C37.4933 34.833 36.9181 34.5948 36.4941 34.1709C36.0704 33.7471 35.8321 33.1726 35.832 32.5732C35.832 31.9737 36.0702 31.3985 36.4941 30.9746C36.9181 30.5507 37.4933 30.3125 38.0928 30.3125Z" fill="#333333" stroke="black"/>
</svg>
