<svg width="64" height="64" viewBox="0 0 64 64" fill="none" xmlns="http://www.w3.org/2000/svg">
<path d="M13.3333 32H8L32 8L56 32H50.6667M13.3333 32V50.6667C13.3333 52.0812 13.8952 53.4377 14.8954 54.4379C15.8956 55.4381 17.2522 56 18.6667 56H45.3333C46.7478 56 48.1044 55.4381 49.1046 54.4379C50.1048 53.4377 50.6667 52.0812 50.6667 50.6667V32" stroke="black" stroke-width="2" stroke-linecap="round" stroke-linejoin="round"/>
<path d="M24 56.0003V40.0003C24 38.5858 24.5619 37.2293 25.5621 36.2291C26.5623 35.2289 27.9188 34.667 29.3333 34.667H34.6667C36.0812 34.667 37.4377 35.2289 38.4379 36.2291C39.4381 37.2293 40 38.5858 40 40.0003V56.0003" stroke="black" stroke-width="2" stroke-linecap="round" stroke-linejoin="round"/>
</svg>
