<svg width="56" height="56" viewBox="0 0 56 56" fill="none" xmlns="http://www.w3.org/2000/svg">
<path d="M31.4994 35H13.9993C9.59868 35 7.40068 35 6.03335 33.6327C4.66602 32.2653 4.66602 30.0673 4.66602 25.6667V16.3333C4.66602 11.9327 4.66602 9.73467 6.03335 8.36733C7.40068 7 9.59868 7 13.9993 7H41.9994C46.4 7 48.598 7 49.9654 8.36733C51.3327 9.73467 51.3327 11.9327 51.3327 16.3333V28C51.3327 30.1747 51.3327 31.262 50.978 32.1183C50.7435 32.6849 50.3996 33.1997 49.966 33.6333C49.5324 34.0669 49.0176 34.4108 48.451 34.6453C47.5947 35 46.5074 35 44.3327 35" stroke="black" stroke-width="1.5" stroke-linecap="round" stroke-linejoin="round"/>
<path d="M30.3333 39.6663C30.3333 37.8098 31.0708 36.0293 32.3836 34.7166C33.6963 33.4038 35.4768 32.6663 37.3333 32.6663V27.9997C37.3333 26.1432 38.0708 24.3627 39.3836 23.0499C40.6963 21.7372 42.4768 20.9997 44.3333 20.9997V33.833C44.3333 39.2813 44.3333 42.0043 43.232 44.067C42.3618 45.6949 41.0285 47.0282 39.4007 47.8983C37.338 48.9997 34.615 48.9997 29.1667 48.9997H28C23.6507 48.9997 21.476 48.9997 19.7633 48.288C18.6306 47.8195 17.6013 47.1324 16.7341 46.266C15.8669 45.3997 15.1789 44.371 14.7093 43.2387C14 41.5237 14 39.349 14 34.9997M32.6667 20.9997C32.6667 22.2374 32.175 23.4243 31.2998 24.2995C30.4247 25.1747 29.2377 25.6663 28 25.6663C26.7623 25.6663 25.5753 25.1747 24.7002 24.2995C23.825 23.4243 23.3333 22.2374 23.3333 20.9997C23.3333 19.762 23.825 18.575 24.7002 17.6998C25.5753 16.8247 26.7623 16.333 28 16.333C29.2377 16.333 30.4247 16.8247 31.2998 17.6998C32.175 18.575 32.6667 19.762 32.6667 20.9997Z" stroke="black" stroke-width="1.5" stroke-linecap="round" stroke-linejoin="round"/>
</svg>
