<svg width="46" height="44" viewBox="0 0 46 44" fill="none" xmlns="http://www.w3.org/2000/svg">
<path d="M40.6333 2.75C40.1222 1.1 38.5889 0 37.0556 0H8.94444C7.15556 0 5.87778 1.1 5.36667 2.75L0 19.25V41.25C0 42.625 1.27778 44 2.55556 44H5.11111C6.64444 44 7.66667 42.625 7.66667 41.25V38.5H38.3333V41.25C38.3333 42.625 39.6111 44 40.8889 44H43.4444C44.7222 44 46 42.625 46 41.25V19.25L40.6333 2.75ZM9.71111 5.5H36.0333L38.8444 13.75H7.15556L9.71111 5.5ZM40.8889 33H5.11111V19.25H40.8889V33ZM11.5 22C13.5444 22 15.3333 23.925 15.3333 26.125C15.3333 28.325 13.5444 30.25 11.5 30.25C9.45556 30.25 7.66667 28.325 7.66667 26.125C7.66667 23.925 9.45556 22 11.5 22ZM34.5 22C36.5444 22 38.3333 23.925 38.3333 26.125C38.3333 28.325 36.5444 30.25 34.5 30.25C32.4556 30.25 30.6667 28.325 30.6667 26.125C30.6667 23.925 32.4556 22 34.5 22Z" fill="black"/>
</svg>
