<svg width="30" height="30" viewBox="0 0 30 30" fill="none" xmlns="http://www.w3.org/2000/svg">
<path opacity="0.5" d="M23.801 4.7C22.4935 3.39921 21.7728 1.729 21.773 0H15.861V20.6667C15.8163 21.7853 15.2746 22.8451 14.3501 23.6225C13.4256 24.3999 12.1906 24.834 10.9056 24.8333C8.18878 24.8333 5.93112 22.9 5.93112 20.5C5.93112 17.6333 9.10714 15.4833 12.3788 16.3667V11.1C5.77806 10.3333 0 14.8 0 20.5C0 26.05 5.28061 30 10.8865 30C16.8941 30 21.773 25.75 21.773 20.5V10.0167C24.1703 11.5164 27.0485 12.3211 30 12.3167V7.16667C30 7.16667 26.4031 7.31667 23.801 4.7Z" fill="#012148"/>
</svg>
