<svg width="60" height="60" viewBox="0 0 60 60" fill="none" xmlns="http://www.w3.org/2000/svg">
<g clip-path="url(#clip0_278_1148)">
<path d="M29.7831 -0.0716753C29.6855 -0.054052 29.5891 -0.0301563 29.4946 -0.000136822C28.9736 0.116636 28.5092 0.410456 28.1806 0.831253C27.8519 1.25205 27.6794 1.77379 27.6923 2.30756V4.61525H6.92308C5.08696 4.61525 3.32605 5.34464 2.02772 6.64297C0.729393 7.9413 0 9.70221 0 11.5383L0 41.5383C0 45.3599 3.10154 48.4614 6.92308 48.4614H27.6923V49.3268L15.1431 55.6014C14.5886 55.8692 14.1631 56.3463 13.9604 56.9277C13.7576 57.5091 13.7942 58.1473 14.0619 58.7018C14.3297 59.2563 14.8068 59.6817 15.3882 59.8845C15.9696 60.0872 16.6078 60.0507 17.1623 59.7829L27.6923 54.5191V55.3845C27.6923 55.9965 27.9354 56.5835 28.3682 57.0163C28.801 57.449 29.388 57.6922 30 57.6922C30.612 57.6922 31.199 57.449 31.6318 57.0163C32.0646 56.5835 32.3077 55.9965 32.3077 55.3845V54.5191L42.8377 59.7829C43.3922 60.0507 44.0304 60.0872 44.6118 59.8845C45.1932 59.6817 45.6703 59.2563 45.9381 58.7018C46.2058 58.1473 46.2424 57.5091 46.0396 56.9277C45.8369 56.3463 45.4114 55.8692 44.8569 55.6014L32.3077 49.3268V48.4614H53.0769C56.8985 48.4614 60 45.3599 60 41.5383V11.5383C60 9.70221 59.2706 7.9413 57.9723 6.64297C56.674 5.34464 54.913 4.61525 53.0769 4.61525H32.3077V2.30756C32.3193 1.9794 32.2608 1.65253 32.1361 1.34879C32.0113 1.04506 31.8231 0.771444 31.5842 0.546237C31.3452 0.32103 31.0609 0.149414 30.7503 0.0428564C30.4397 -0.0637017 30.11 -0.102748 29.7831 -0.0716753ZM4.61538 11.5383H55.3846V41.5383H4.61538V11.5383ZM48.1731 13.846C47.6562 13.9016 47.1731 14.1301 46.8023 14.4945L39.2308 22.0683L33.9669 16.7999C33.7148 16.5412 33.4055 16.3453 33.0639 16.228C32.7224 16.1106 32.358 16.0751 32.0002 16.1243C31.6423 16.1734 31.301 16.3059 31.0037 16.511C30.7064 16.7161 30.4615 16.9882 30.2885 17.3053L23.4369 29.2776L20.6238 22.2091C20.4872 21.8441 20.2604 21.5197 19.9646 21.2661C19.6687 21.0124 19.3135 20.8378 18.9319 20.7586C18.5504 20.6793 18.155 20.698 17.7826 20.8128C17.4102 20.9276 17.073 21.1349 16.8023 21.4152L9.87923 28.3383C9.66103 28.5564 9.48792 28.8153 9.36978 29.1002C9.25163 29.3852 9.19077 29.6906 9.19066 29.999C9.19055 30.3075 9.25121 30.613 9.36915 30.898C9.4871 31.183 9.66003 31.4421 9.87808 31.6602C10.0961 31.8784 10.355 32.0516 10.64 32.1697C10.9249 32.2878 11.2303 32.3487 11.5388 32.3488C11.8473 32.3489 12.1527 32.2883 12.4378 32.1703C12.7228 32.0524 12.9818 31.8794 13.2 31.6614L17.5985 27.2629L20.9169 35.4829C21.0735 35.8952 21.345 36.2539 21.6992 36.5167C22.0534 36.7795 22.4754 36.9352 22.9154 36.9656C23.3553 36.996 23.7948 36.8996 24.1817 36.688C24.5686 36.4763 24.8867 36.1582 25.0985 35.7714L32.8154 22.2852L37.5738 27.046C37.789 27.2687 38.0469 27.4457 38.3319 27.5666C38.617 27.6875 38.9234 27.7498 39.2331 27.7498C39.5427 27.7498 39.8492 27.6875 40.1342 27.5666C40.4193 27.4457 40.6771 27.2687 40.8923 27.046L50.1231 17.8152C50.4876 17.4778 50.7335 17.0317 50.8242 16.5432C50.915 16.0548 50.8456 15.5501 50.6266 15.1043C50.4075 14.6584 50.0505 14.2951 49.6084 14.0684C49.1664 13.8417 48.663 13.7637 48.1731 13.846Z" fill="#333333"/>
</g>
<defs>
<clipPath id="clip0_278_1148">
<rect width="60" height="60" fill="white"/>
</clipPath>
</defs>
</svg>
