<svg width="615" height="938" viewBox="0 0 615 938" fill="none" xmlns="http://www.w3.org/2000/svg">
<g opacity="0.5">
<line x1="614.239" y1="3.12136" x2="454.239" y2="330.121" stroke="black"/>
<line x1="246.511" y1="177.317" x2="0.511048" y2="12.3169" stroke="black"/>
<line x1="1.05028" y1="199.475" x2="235.05" y2="342.475" stroke="black"/>
<line x1="246.573" y1="176.451" x2="613.573" y2="0.450773" stroke="black"/>
<line x1="242.515" y1="254.484" x2="610.515" y2="12.4839" stroke="black"/>
<line x1="234.471" y1="342.516" x2="592.471" y2="46.5163" stroke="black"/>
<line x1="0.430126" y1="665.554" x2="587.43" y2="58.554" stroke="black"/>
<line x1="0.394875" y1="573.595" x2="196.395" y2="321.595" stroke="black"/>
<line x1="0.408752" y1="617.578" x2="234.409" y2="342.578" stroke="black"/>
<line x1="1.13452" y1="254.54" x2="257.135" y2="498.54" stroke="black"/>
<line x1="1.1285" y1="371.534" x2="245.129" y2="596.534" stroke="black"/>
<line x1="257.105" y1="499.29" x2="1.10485" y2="707.29" stroke="black"/>
<line x1="245.045" y1="597.331" x2="1.04498" y2="742.331" stroke="black"/>
<line x1="454.125" y1="330.272" x2="348.125" y2="426.272" stroke="black"/>
<line x1="348.215" y1="425.639" x2="611.215" y2="852.639" stroke="black"/>
<line x1="238.001" y1="678.448" x2="611.001" y2="852.448" stroke="black"/>
<line x1="238.136" y1="679.262" x2="1.13619" y2="907.262" stroke="black"/>
<line x1="279.052" y1="766.327" x2="1.05151" y2="937.328" stroke="black"/>
<line x1="211.913" y1="748.417" x2="278.913" y2="765.417" stroke="black"/>
<line x1="212.037" y1="749.336" x2="1.03673" y2="869.336" stroke="black"/>
</g>
</svg>
