<svg width="22" height="22" viewBox="0 0 22 22" fill="none" xmlns="http://www.w3.org/2000/svg">
<g clip-path="url(#clip0_225_128)">
<path d="M6.1416 11C6.14527 12.0159 6.2725 13.0276 6.52049 14.0128H10.4805V8.21948H6.46549C6.25449 9.13141 6.14586 10.064 6.1416 11Z" fill="white"/>
<path d="M11.5195 8.21948V14.0128H15.4795C15.7378 13.0289 15.8753 12.0172 15.889 11C15.8867 10.0643 15.7801 9.13164 15.5712 8.21948H11.5195Z" fill="white"/>
<path d="M11 1.22217C9.06609 1.22217 7.17566 1.79562 5.56771 2.87002C3.95976 3.94442 2.70652 5.4715 1.96646 7.25815C1.2264 9.04481 1.03277 11.0108 1.41005 12.9075C1.78733 14.8042 2.71857 16.5464 4.08602 17.9139C5.45346 19.2813 7.1957 20.2126 9.0924 20.5898C10.9891 20.9671 12.9551 20.7735 14.7417 20.0334C16.5284 19.2934 18.0555 18.0401 19.1299 16.4322C20.2043 14.8242 20.7777 12.9338 20.7777 10.9999C20.7777 8.40672 19.7476 5.9197 17.9139 4.08601C16.0802 2.25232 13.5932 1.22217 11 1.22217ZM18.4677 15.1005H16.2555C15.8372 16.41 15.2188 17.6469 14.4222 18.7672C13.8341 19.0227 13.2191 19.2113 12.5888 19.3294C13.718 18.1027 14.5869 16.66 15.1433 15.0883H11.5255V19.4577H10.4927V15.1005H6.85662C7.41222 16.6744 8.28121 18.1192 9.41106 19.3477C8.7938 19.2309 8.19128 19.0465 7.6144 18.7977C6.81495 17.668 6.19642 16.4207 5.78106 15.1005H3.53217C3.33706 14.7443 3.16756 14.3747 3.02495 13.9944H5.46939C5.24034 13.0125 5.12146 12.0082 5.11495 10.9999C5.11582 10.0654 5.21413 9.13353 5.40828 8.21939H2.90884C3.03758 7.84027 3.19278 7.47066 3.37328 7.11328H5.70162C6.13892 5.65842 6.81641 4.28692 7.70606 3.0555C8.27069 2.82226 8.85867 2.65017 9.45995 2.54217C8.24378 3.84657 7.32622 5.40015 6.77106 7.09495H10.4927V2.44439H11.5255V7.11328H15.2472C14.693 5.4212 13.7776 3.86982 12.5644 2.56661C13.1648 2.66673 13.7527 2.83062 14.3183 3.0555C15.2028 4.27802 15.8781 5.63894 16.3166 7.08272H18.6205C18.801 7.44011 18.9562 7.80972 19.085 8.18884H16.6038C16.8022 9.11274 16.9025 10.055 16.9033 10.9999C16.9001 12.0141 16.7833 13.0246 16.555 14.0127H18.9994C18.8481 14.3874 18.6704 14.7509 18.4677 15.1005Z" fill="white"/>
</g>
<defs>
<clipPath id="clip0_225_128">
<rect width="22" height="22" fill="white"/>
</clipPath>
</defs>
</svg>
